<svg xmlns="http://www.w3.org/2000/svg" width="1324" height="641.25" viewBox="0 0 1324 641.25">
  <g id="Grupo_95180" data-name="Grupo 95180" transform="translate(-180 -732)">
    <rect id="Rectángulo_35412" data-name="Rectángulo 35412" width="399" height="82" rx="10" transform="translate(790 732)" fill="#a2f9be"/>
    <rect id="Rectángulo_35413" data-name="Rectángulo 35413" width="190" height="60" transform="translate(553 879)" fill="#d0fcdf"/>
    <rect id="Rectángulo_35435" data-name="Rectángulo 35435" width="167" height="38" transform="translate(1253 961)" fill="#d4efff"/>
    <rect id="Rectángulo_35436" data-name="Rectángulo 35436" width="167" height="46" transform="translate(1253 1077)" fill="#d4efff"/>
    <rect id="Rectángulo_35437" data-name="Rectángulo 35437" width="167" height="46" transform="translate(1253 1017)" fill="#d4efff"/>
    <rect id="Rectángulo_35438" data-name="Rectángulo 35438" width="167" height="38" transform="translate(1253 1141)" fill="#d4efff"/>
    <rect id="Rectángulo_35439" data-name="Rectángulo 35439" width="167" height="56" transform="translate(1253 1201)" fill="#d4efff"/>
    <rect id="Rectángulo_35414" data-name="Rectángulo 35414" width="167" height="60" transform="translate(768 879)" fill="#d0fcdf"/>
    <rect id="Rectángulo_35415" data-name="Rectángulo 35415" width="167" height="60" transform="translate(958 879)" fill="#d0fcdf"/>
    <rect id="Rectángulo_35416" data-name="Rectángulo 35416" width="167" height="60" transform="translate(1253 879)" fill="#d0fcdf"/>
    <text id="Identificación_de_sistemas_de_agua_para_el_consumo_humano" data-name="Identificación de sistemas de agua para el consumo humano" transform="translate(947 751.875)" fill="#12263f" font-size="18" font-family="Roboto-Black, Roboto" font-weight="800"><tspan x="-119.241" y="19">Identificación de sistemas de </tspan><tspan x="-124.154" y="44">agua para el consumo humano</tspan></text>
    <text id="Conceptos_básicos" data-name="Conceptos básicos" transform="translate(671 903.875)" fill="#12263f" font-size="13" font-family="Roboto-Black, Roboto" font-weight="800"><tspan x="-55.472" y="14">Conceptos básicos</tspan></text>
    <text id="Requisitos_Técnicos_y_Normatividad" data-name="Requisitos Técnicos y Normatividad" transform="translate(860 893.875)" fill="#12263f" font-size="13" font-family="Roboto-Black, Roboto" font-weight="800"><tspan x="-64.353" y="14">Requisitos Técnicos y </tspan><tspan x="-39.651" y="32">Normatividad</tspan></text>
    <text id="Tipos_de_tuberías_Manuales_técnicos_" data-name="Tipos de tuberías (Manuales técnicos)" transform="translate(1050 893.875)" fill="#12263f" font-size="13" font-family="Roboto-Black, Roboto" font-weight="800"><tspan x="-51.146" y="14">Tipos de tuberías </tspan><tspan x="-59.741" y="32">(Manuales técnicos)</tspan></text>
    <text id="Procedimientos_y_canales_de_información" data-name="Procedimientos y canales de información" transform="translate(1345 893.875)" fill="#12263f" font-size="13" font-family="Roboto-Black, Roboto" font-weight="800"><tspan x="-75.496" y="14">Procedimientos y canales </tspan><tspan x="-44.262" y="32">de información</tspan></text>
    <line id="Línea_144" data-name="Línea 144" x2="0.5" y2="37" transform="translate(990 813.5)" fill="none" stroke="#004e64" stroke-width="3"/>
    <line id="Línea_145" data-name="Línea 145" x2="0.25" y2="28.5" transform="translate(849.5 850.5)" fill="none" stroke="#004e64" stroke-width="3"/>
    <line id="Línea_146" data-name="Línea 146" x2="0.25" y2="28.5" transform="translate(1041.5 850.5)" fill="none" stroke="#004e64" stroke-width="3"/>
    <rect id="Rectángulo_35433" data-name="Rectángulo 35433" width="254" height="176" transform="translate(180 949)" fill="#d4efff"/>
    <text id="Separación_de_desechos." data-name="Separación de desechos." transform="translate(1350 974.875)" fill="#12263f" font-size="13" font-family="Roboto-Regular, Roboto"><tspan x="-72.347" y="14">Separación de desechos.</tspan></text>
    <text id="Filtración_de_arena_y_aceite." data-name="Filtración de arena y aceite." transform="translate(1350 1025.875)" fill="#12263f" font-size="13" font-family="Roboto-Regular, Roboto"><tspan x="-58.065" y="14">Filtración de arena y </tspan><tspan x="-19.237" y="32">aceite.</tspan></text>
    <text id="Clarificación_y_aireación." data-name="Clarificación y aireación." transform="translate(1350 1093.875)" fill="#12263f" font-size="13" font-family="Roboto-Regular, Roboto"><tspan x="-70.5" y="14">Clarificación y aireación.</tspan></text>
    <text id="Cloración_o_desinfección." data-name="Cloración o desinfección." transform="translate(1350 1153.875)" fill="#12263f" font-size="13" font-family="Roboto-Regular, Roboto"><tspan x="-73.033" y="14">Cloración o desinfección.</tspan></text>
    <text id="Análisis_y_tratamiento_de_lodos." data-name="Análisis y tratamiento de lodos." transform="translate(1350 1214.875)" fill="#12263f" font-size="13" font-family="Roboto-Regular, Roboto"><tspan x="-71.271" y="14">Análisis y tratamiento de </tspan><tspan x="-17.719" y="32">lodos.</tspan></text>
    <text id="El_saneamiento_incluye" data-name="El saneamiento incluye" transform="translate(515 1013)" fill="#12263f" font-size="13" font-family="Roboto-Regular, Roboto"><tspan x="-5.272" y="14">El </tspan><tspan x="-37.524" y="32">saneamiento </tspan><tspan x="-20.246" y="50">incluye</tspan></text>
    <text id="_1.Manejo_y_disposición_de_aguas_residuales_y_excretas._2.Manejo_y_disposición_final_de_residuos_sólidos._3.Desinfección_domiciliaria_del_agua._4.Disposición_sanitaria_de_excretas._5.Mejoramiento_de_condiciones_de_vida." data-name="1.Manejo y disposición de aguas residuales y excretas.
2.Manejo y disposición final de residuos sólidos.
3.Desinfección domiciliaria del agua.
4.Disposición sanitaria de excretas.
5.Mejoramiento de condiciones de vida." transform="translate(285 968.875)" fill="#12263f" font-size="13" font-family="Roboto-Regular, Roboto"><tspan x="-94.285" y="14">1.Manejo y disposición de aguas </tspan><tspan x="-62.391" y="32">residuales y excretas.</tspan><tspan x="-88.931" y="50">2.Manejo y disposición final de </tspan><tspan x="-49.137" y="68">residuos sólidos.</tspan><tspan x="-106.114" y="86">3.Desinfección domiciliaria del agua.</tspan><tspan x="-102.435" y="104">4.Disposición sanitaria de excretas.</tspan><tspan x="-99.471" y="122">5.Mejoramiento de condiciones de </tspan><tspan x="-13.638" y="140">vida.</tspan></text>
    <line id="Línea_142" data-name="Línea 142" x1="18" transform="translate(553.5 1037.5)" fill="none" stroke="#004e64" stroke-width="3"/>
    <line id="Línea_143" data-name="Línea 143" x1="27.5" transform="translate(434 1037.5)" fill="none" stroke="#004e64" stroke-width="3"/>
    <path id="Trazado_146179" data-name="Trazado 146179" d="M6377-10821v-29H5686v29" transform="translate(-5041.5 11700)" fill="none" stroke="#004e64" stroke-width="3"/>
    <g id="Grupo_95160" data-name="Grupo 95160">
      <line id="Línea_141" data-name="Línea 141" y2="22" transform="translate(646.5 939.5)" fill="none" stroke="#004e64" stroke-width="3"/>
      <path id="Polígono_8" data-name="Polígono 8" d="M4.5,0,9,8H0Z" transform="translate(651 965) rotate(180)" fill="#004e64"/>
    </g>
    <g id="Grupo_95164" data-name="Grupo 95164" transform="translate(205)">
      <line id="Línea_141-2" data-name="Línea 141" y2="22" transform="translate(646.5 939.5)" fill="none" stroke="#004e64" stroke-width="3"/>
      <path id="Polígono_8-2" data-name="Polígono 8" d="M4.5,0,9,8H0Z" transform="translate(651 965) rotate(180)" fill="#004e64"/>
    </g>
    <g id="Grupo_95168" data-name="Grupo 95168" transform="translate(395.25)">
      <line id="Línea_141-3" data-name="Línea 141" y2="22" transform="translate(646.5 939.5)" fill="none" stroke="#004e64" stroke-width="3"/>
      <path id="Polígono_8-3" data-name="Polígono 8" d="M4.5,0,9,8H0Z" transform="translate(651 965) rotate(180)" fill="#004e64"/>
    </g>
    <g id="Grupo_95175" data-name="Grupo 95175" transform="translate(290.5 1627.5) rotate(-90)">
      <line id="Línea_141-4" data-name="Línea 141" y2="18.75" transform="translate(646.5 939.5)" fill="none" stroke="#004e64" stroke-width="3"/>
      <path id="Polígono_8-4" data-name="Polígono 8" d="M4.5,0,9,8H0Z" transform="translate(651 961.75) rotate(180)" fill="#004e64"/>
    </g>
    <g id="Grupo_95176" data-name="Grupo 95176" transform="translate(290.5 1686.5) rotate(-90)">
      <line id="Línea_141-5" data-name="Línea 141" y2="18.75" transform="translate(646.5 939.5)" fill="none" stroke="#004e64" stroke-width="3"/>
      <path id="Polígono_8-5" data-name="Polígono 8" d="M4.5,0,9,8H0Z" transform="translate(651 961.75) rotate(180)" fill="#004e64"/>
    </g>
    <g id="Grupo_95177" data-name="Grupo 95177" transform="translate(290.5 1746.5) rotate(-90)">
      <line id="Línea_141-6" data-name="Línea 141" y2="18.75" transform="translate(646.5 939.5)" fill="none" stroke="#004e64" stroke-width="3"/>
      <path id="Polígono_8-6" data-name="Polígono 8" d="M4.5,0,9,8H0Z" transform="translate(651 961.75) rotate(180)" fill="#004e64"/>
    </g>
    <g id="Grupo_95178" data-name="Grupo 95178" transform="translate(290.5 1806) rotate(-90)">
      <line id="Línea_141-7" data-name="Línea 141" y2="18.75" transform="translate(646.5 939.5)" fill="none" stroke="#004e64" stroke-width="3"/>
      <path id="Polígono_8-7" data-name="Polígono 8" d="M4.5,0,9,8H0Z" transform="translate(651 961.75) rotate(180)" fill="#004e64"/>
    </g>
    <g id="Grupo_95179" data-name="Grupo 95179" transform="translate(290.5 1875.5) rotate(-90)">
      <line id="Línea_141-8" data-name="Línea 141" y2="18.75" transform="translate(646.5 939.5)" fill="none" stroke="#004e64" stroke-width="3"/>
      <path id="Polígono_8-8" data-name="Polígono 8" d="M4.5,0,9,8H0Z" transform="translate(651 961.75) rotate(180)" fill="#004e64"/>
    </g>
    <g id="Grupo_95169" data-name="Grupo 95169" transform="translate(395.25 54)">
      <line id="Línea_141-9" data-name="Línea 141" y2="22" transform="translate(646.5 939.5)" fill="none" stroke="#004e64" stroke-width="3"/>
      <path id="Polígono_8-9" data-name="Polígono 8" d="M4.5,0,9,8H0Z" transform="translate(651 965) rotate(180)" fill="#004e64"/>
    </g>
    <g id="Grupo_95170" data-name="Grupo 95170" transform="translate(395.25 117.5)">
      <line id="Línea_141-10" data-name="Línea 141" y2="22" transform="translate(646.5 939.5)" fill="none" stroke="#004e64" stroke-width="3"/>
      <path id="Polígono_8-10" data-name="Polígono 8" d="M4.5,0,9,8H0Z" transform="translate(651 965) rotate(180)" fill="#004e64"/>
    </g>
    <g id="Grupo_95171" data-name="Grupo 95171" transform="translate(395.25 181.5)">
      <line id="Línea_141-11" data-name="Línea 141" y2="22" transform="translate(646.5 939.5)" fill="none" stroke="#004e64" stroke-width="3"/>
      <path id="Polígono_8-11" data-name="Polígono 8" d="M4.5,0,9,8H0Z" transform="translate(651 965) rotate(180)" fill="#004e64"/>
    </g>
    <g id="Grupo_95172" data-name="Grupo 95172" transform="translate(395.25 237.5)">
      <line id="Línea_141-12" data-name="Línea 141" y2="22" transform="translate(646.5 939.5)" fill="none" stroke="#004e64" stroke-width="3"/>
      <path id="Polígono_8-12" data-name="Polígono 8" d="M4.5,0,9,8H0Z" transform="translate(651 965) rotate(180)" fill="#004e64"/>
    </g>
    <g id="Grupo_95173" data-name="Grupo 95173" transform="translate(395.25 297.5)">
      <line id="Línea_141-13" data-name="Línea 141" y2="22" transform="translate(646.5 939.5)" fill="none" stroke="#004e64" stroke-width="3"/>
      <path id="Polígono_8-13" data-name="Polígono 8" d="M4.5,0,9,8H0Z" transform="translate(651 965) rotate(180)" fill="#004e64"/>
    </g>
    <g id="Grupo_95165" data-name="Grupo 95165" transform="translate(205 54)">
      <line id="Línea_141-14" data-name="Línea 141" y2="22" transform="translate(646.5 939.5)" fill="none" stroke="#004e64" stroke-width="3"/>
      <path id="Polígono_8-14" data-name="Polígono 8" d="M4.5,0,9,8H0Z" transform="translate(651 965) rotate(180)" fill="#004e64"/>
    </g>
    <g id="Grupo_95166" data-name="Grupo 95166" transform="translate(205 142.75)">
      <line id="Línea_141-15" data-name="Línea 141" y2="22" transform="translate(646.5 939.5)" fill="none" stroke="#004e64" stroke-width="3"/>
      <path id="Polígono_8-15" data-name="Polígono 8" d="M4.5,0,9,8H0Z" transform="translate(651 965) rotate(180)" fill="#004e64"/>
    </g>
    <g id="Grupo_95167" data-name="Grupo 95167" transform="translate(205 198.5)">
      <line id="Línea_141-16" data-name="Línea 141" y2="22" transform="translate(646.5 939.5)" fill="none" stroke="#004e64" stroke-width="3"/>
      <path id="Polígono_8-16" data-name="Polígono 8" d="M4.5,0,9,8H0Z" transform="translate(651 965) rotate(180)" fill="#004e64"/>
    </g>
    <g id="Grupo_95161" data-name="Grupo 95161" transform="translate(0 52)">
      <line id="Línea_141-17" data-name="Línea 141" y2="22" transform="translate(646.5 939.5)" fill="none" stroke="#004e64" stroke-width="3"/>
      <path id="Polígono_8-17" data-name="Polígono 8" d="M4.5,0,9,8H0Z" transform="translate(651 965) rotate(180)" fill="#004e64"/>
    </g>
    <g id="Grupo_95162" data-name="Grupo 95162" transform="translate(0 103.75)">
      <line id="Línea_141-18" data-name="Línea 141" y2="22" transform="translate(646.5 939.5)" fill="none" stroke="#004e64" stroke-width="3"/>
      <path id="Polígono_8-18" data-name="Polígono 8" d="M4.5,0,9,8H0Z" transform="translate(651 965) rotate(180)" fill="#004e64"/>
    </g>
    <g id="Grupo_95163" data-name="Grupo 95163" transform="translate(0 152.75)">
      <line id="Línea_141-19" data-name="Línea 141" y2="22" transform="translate(646.5 939.5)" fill="none" stroke="#004e64" stroke-width="3"/>
      <path id="Polígono_8-19" data-name="Polígono 8" d="M4.5,0,9,8H0Z" transform="translate(651 965) rotate(180)" fill="#004e64"/>
    </g>
    <g id="Grupo_95174" data-name="Grupo 95174" transform="translate(0 289.75)">
      <line id="Línea_141-20" data-name="Línea 141" y2="94.75" transform="translate(646.5 866.75)" fill="none" stroke="#004e64" stroke-width="3"/>
      <path id="Polígono_8-20" data-name="Polígono 8" d="M4.5,0,9,8H0Z" transform="translate(651 965) rotate(180)" fill="#004e64"/>
    </g>
    <rect id="Rectángulo_35417" data-name="Rectángulo 35417" width="150" height="38" transform="translate(571 965.25)" fill="#d4efff"/>
    <rect id="Rectángulo_35418" data-name="Rectángulo 35418" width="150" height="38" transform="translate(571 1018)" fill="#d4efff"/>
    <rect id="Rectángulo_35419" data-name="Rectángulo 35419" width="150" height="33" transform="translate(571 1071.25)" fill="#d4efff"/>
    <rect id="Rectángulo_35420" data-name="Rectángulo 35420" width="150" height="38" transform="translate(571 1119.25)" fill="#d4efff"/>
    <text id="Agua_potable" data-name="Agua potable" transform="translate(659 977.125)" fill="#12263f" font-size="13" font-family="Roboto-Regular, Roboto"><tspan x="-38.295" y="14">Agua potable</tspan></text>
    <text id="Saneamiento" transform="translate(659 1031.875)" fill="#12263f" font-size="13" font-family="Roboto-Regular, Roboto"><tspan x="-38.029" y="14">Saneamiento</tspan></text>
    <text id="Hidráulica" transform="translate(690 1131.125)" fill="#12263f" font-size="13" font-family="Roboto-Regular, Roboto"><tspan x="-29.288" y="14">Hidráulica</tspan></text>
    <text id="Sistema_de_tratamiento" data-name="Sistema de tratamiento" transform="translate(659 1082.125)" fill="#12263f" font-size="13" font-family="Roboto-Regular, Roboto"><tspan x="-67.374" y="14">Sistema de tratamiento</tspan></text>
    <rect id="Rectángulo_35422" data-name="Rectángulo 35422" width="167" height="38" transform="translate(768 965)" fill="#d4efff"/>
    <rect id="Rectángulo_35423" data-name="Rectángulo 35423" width="167" height="73" transform="translate(768 1021)" fill="#d4efff"/>
    <rect id="Rectángulo_35424" data-name="Rectángulo 35424" width="167" height="38" transform="translate(768 1109)" fill="#d4efff"/>
    <rect id="Rectángulo_35425" data-name="Rectángulo 35425" width="167" height="38" transform="translate(768 1165)" fill="#d4efff"/>
    <text id="Resolución_No._0330_de_08_de_junio_de_2017" data-name="Resolución No. 0330 de 08 de junio de 2017" transform="translate(863 971.875)" fill="#12263f" font-size="13" font-family="Roboto-Regular, Roboto"><tspan x="-68.526" y="14">Resolución No. 0330 de </tspan><tspan x="-56.561" y="32">08 de junio de 2017</tspan></text>
    <text id="Decreto_1575_de_2007" data-name="Decreto 1575 de 2007" transform="translate(863 1122.875)" fill="#12263f" font-size="13" font-family="Roboto-Regular, Roboto"><tspan x="-63.654" y="14">Decreto 1575 de 2007</tspan></text>
    <text id="Ley_1753_de_2015" data-name="Ley 1753 de 2015" transform="translate(863 1177.875)" fill="#12263f" font-size="13" font-family="Roboto-Regular, Roboto"><tspan x="-51.153" y="14">Ley 1753 de 2015</tspan></text>
    <text id="Reglamento_técnico_del_sector_de_agua_potable_y_saneamiento_básico." data-name="Reglamento técnico del sector de agua potable y saneamiento básico." transform="translate(863 1033.875)" fill="#12263f" font-size="13" font-family="Roboto-Regular, Roboto"><tspan x="-67.847" y="14">Reglamento técnico del </tspan><tspan x="-70.767" y="32">sector de agua potable y </tspan><tspan x="-60.065" y="50">saneamiento básico.</tspan></text>
    <rect id="Rectángulo_35426" data-name="Rectángulo 35426" width="167" height="38" transform="translate(958 965)" fill="#d4efff"/>
    <rect id="Rectángulo_35428" data-name="Rectángulo 35428" width="167" height="46" transform="translate(958 1085)" fill="#d4efff"/>
    <rect id="Rectángulo_35434" data-name="Rectángulo 35434" width="167" height="46" transform="translate(958 1021)" fill="#d4efff"/>
    <rect id="Rectángulo_35429" data-name="Rectángulo 35429" width="167" height="38" transform="translate(958 1149)" fill="#d4efff"/>
    <text id="Tubería_de_hierro" data-name="Tubería de hierro" transform="translate(1055 978.875)" fill="#12263f" font-size="13" font-family="Roboto-Regular, Roboto"><tspan x="-48.563" y="14">Tubería de hierro</tspan></text>
    <text id="Tubería_de_acero_inoxidable" data-name="Tubería de acero inoxidable" transform="translate(1055 1029.875)" fill="#12263f" font-size="13" font-family="Roboto-Regular, Roboto"><tspan x="-48.144" y="14">Tubería de acero </tspan><tspan x="-29.472" y="32">inoxidable</tspan></text>
    <text id="Tubería_de_polietileno_reticulado" data-name="Tubería de polietileno reticulado" transform="translate(1055 1093.875)" fill="#12263f" font-size="13" font-family="Roboto-Regular, Roboto"><tspan x="-61.886" y="14">Tubería de polietileno </tspan><tspan x="-28.815" y="32">reticulado</tspan></text>
    <text id="Tubería_de_cobre" data-name="Tubería de cobre" transform="translate(1055 1161.875)" fill="#12263f" font-size="13" font-family="Roboto-Regular, Roboto"><tspan x="-48.318" y="14">Tubería de cobre</tspan></text>
    <rect id="Rectángulo_35430" data-name="Rectángulo 35430" width="167" height="38" transform="translate(958 1205)" fill="#d4efff"/>
    <rect id="Rectángulo_35431" data-name="Rectángulo 35431" width="167" height="38" transform="translate(958 1265)" fill="#d4efff"/>
    <text id="Tubería_multiplicada" data-name="Tubería multiplicada" transform="translate(1055 1278.875)" fill="#12263f" font-size="13" font-family="Roboto-Regular, Roboto"><tspan x="-58.7" y="14">Tubería multiplicada</tspan></text>
    <text id="Tubería_PVC_y_PB" data-name="Tubería PVC y PB" transform="translate(1055 1218.875)" fill="#12263f" font-size="13" font-family="Roboto-Regular, Roboto"><tspan x="-50.108" y="14">Tubería PVC y PB</tspan></text>
    <rect id="Rectángulo_35421" data-name="Rectángulo 35421" width="264" height="116" transform="translate(514 1257.25)" fill="#d4efff"/>
    <rect id="Rectángulo_35432" data-name="Rectángulo 35432" width="190" height="24" transform="translate(551 1205.25)" fill="#fff"/>
    <text id="Características_y_tipos" data-name="Características y tipos" transform="translate(639 1210.125)" fill="#12263f" font-size="13" font-family="Roboto-Black, Roboto" font-weight="800"><tspan x="-65.762" y="14">Características y tipos</tspan></text>
    <text id="_1.Captación_2.Conducción_3.Tratamiento_4.Regularización_5.Línea_de_alimentación_6.Distribución_7.Alcantarillado_8.Red_de_atarjeas_9.Tratamiento" data-name="1.Captación 2.Conducción 3.Tratamiento 4.Regularización 5.Línea de alimentación 6.Distribución 7.Alcantarillado 8.Red de atarjeas 9.Tratamiento" transform="translate(619 1273.125)" fill="#12263f" font-size="13" font-family="Roboto-Regular, Roboto"><tspan x="-76.124" y="14">1.Captación 2.Conducción </tspan><tspan x="-112.544" y="32">3.Tratamiento 4.Regularización 5.Línea </tspan><tspan x="-87.633" y="50">de alimentación 6.Distribución </tspan><tspan x="-96.887" y="68">7.Alcantarillado 8.Red de atarjeas </tspan><tspan x="-40.339" y="86">9.Tratamiento</tspan></text>
    <path id="Trazado_146180" data-name="Trazado 146180" d="M6295-10791h-23v321.5" transform="translate(-5042 11700)" fill="none" stroke="#004e64" stroke-width="3"/>
  </g>
</svg>
