<svg xmlns="http://www.w3.org/2000/svg" width="58.062" height="73.302" viewBox="0 0 58.062 73.302">
  <g id="Grupo_92307" data-name="Grupo 92307" transform="translate(-21.785 -9.818)">
    <g id="Grupo_92301" data-name="Grupo 92301" transform="translate(21.785 9.819)">
      <path id="Trazado_140840" data-name="Trazado 140840" d="M70.992,56.045a24.445,24.445,0,0,1-48.89,0c0-13.458,24.443-45.918,24.443-45.918S70.992,42.587,70.992,56.045Z" transform="translate(-20.57 -8.636)" fill="#a9dfff"/>
      <path id="Trazado_140841" data-name="Trazado 140841" d="M47.76,83.12a25.968,25.968,0,0,1-25.975-25.9c.014-3.653,1.484-8.375,4.615-14.87a1.56,1.56,0,0,1,2.034-.7,1.5,1.5,0,0,1,.778.87A1.565,1.565,0,0,1,29.15,43.7c-2.793,5.731-4.32,10.53-4.306,13.526a22.918,22.918,0,0,0,45.836,0c.063-4.982-4.417-15.16-11.994-27.2C54.332,23.043,49.992,16.944,47.76,13.89c-2.721,3.726-7.945,11.105-12.787,19.19a1.587,1.587,0,0,1-2.107.522,1.534,1.534,0,0,1-.522-2.1c6.142-10.235,12.883-19.34,14.164-21.07l.029-.043a1.591,1.591,0,0,1,2.445,0c.657.87,6.451,8.631,12.3,18.016,5.306,8.583,12.381,20.915,12.453,28.816A25.965,25.965,0,0,1,47.76,83.12ZM30.59,39.13a1.608,1.608,0,0,1-.735-.2,1.526,1.526,0,0,1-.6-2.078l.019-.014a1.526,1.526,0,0,1,2.658,1.5A1.518,1.518,0,0,1,30.59,39.13Z" transform="translate(-21.785 -9.819)" fill="#009ffd"/>
    </g>
    <g id="Grupo_92302" data-name="Grupo 92302" transform="translate(27.898 55.691)">
      <path id="Trazado_140842" data-name="Trazado 140842" d="M41.7,37.881A18.316,18.316,0,0,1,23.366,19.629Z" transform="translate(-21.839 -18.092)" fill="#95edff"/>
      <path id="Trazado_140843" data-name="Trazado 140843" d="M42.912,40.627A19.845,19.845,0,0,1,23.05,20.843a1.527,1.527,0,1,1,3.054,0,16.834,16.834,0,0,0,16.807,16.73,1.527,1.527,0,1,1,0,3.054Z" transform="translate(-23.05 -19.311)" fill="#009ffd"/>
    </g>
    <g id="Grupo_92306" data-name="Grupo 92306" transform="translate(34.775 26.585)">
      <g id="Grupo_92303" data-name="Grupo 92303">
        <path id="Trazado_140844" data-name="Trazado 140844" d="M24.789,33.467A19.864,19.864,0,1,1,44.651,53.328,19.861,19.861,0,0,1,24.789,33.467Z" transform="translate(-23.262 -12.073)" fill="#fff"/>
        <path id="Trazado_140845" data-name="Trazado 140845" d="M45.862,56.07A21.391,21.391,0,1,1,67.255,34.681,21.413,21.413,0,0,1,45.862,56.07Zm0-39.723A18.334,18.334,0,1,0,64.2,34.681,18.355,18.355,0,0,0,45.862,16.347Z" transform="translate(-24.473 -13.288)" fill="#004e64"/>
      </g>
      <g id="Grupo_92305" data-name="Grupo 92305" transform="translate(7.64 0.764)">
        <g id="Grupo_92304" data-name="Grupo 92304">
          <path id="Trazado_140846" data-name="Trazado 140846" d="M38.592,43.557a4.58,4.58,0,0,1-3.238-1.343l-7.64-7.64a4.582,4.582,0,0,1,6.48-6.48l4.079,4.074,14.357-16.74a4.584,4.584,0,0,1,7.07,5.838L42.13,41.9a4.619,4.619,0,0,1-3.32,1.658C38.737,43.557,38.665,43.557,38.592,43.557Z" transform="translate(-24.844 -12.233)" fill="#008eb6"/>
          <path id="Trazado_140847" data-name="Trazado 140847" d="M39.8,46.3a6.2,6.2,0,0,1-4.32-1.788l-7.64-7.64a6.032,6.032,0,0,1-1.788-4.32,6.113,6.113,0,0,1,10.433-4.325l2.9,2.919L52.686,15.65a6.045,6.045,0,0,1,4.673-2.2h.029a6.115,6.115,0,0,1,6.1,6.113,6.257,6.257,0,0,1-1.406,3.914l-8.433,9.9a1.585,1.585,0,0,1-2.17.169,1.539,1.539,0,0,1-.169-2.155L59.727,21.5a3,3,0,0,0,.706-1.943,3.053,3.053,0,0,0-1.116-2.353,3,3,0,0,0-1.943-.7,3.052,3.052,0,0,0-2.353,1.116l-.015.014L40.643,34.38a1.555,1.555,0,0,1-1.1.536h-.063a1.546,1.546,0,0,1-1.087-.459l-4.079-4.064a3.114,3.114,0,0,0-4.325,0,3.045,3.045,0,0,0-.884,2.155,3,3,0,0,0,.9,2.15l7.635,7.64a3.2,3.2,0,0,0,2.233.9h.077a3.073,3.073,0,0,0,2.213-1.131l1.223-1.421a1.529,1.529,0,0,1,2.324,1.986l-1.208,1.406a6.1,6.1,0,0,1-4.417,2.2A1.942,1.942,0,0,1,39.8,46.3Zm8.713-7.746a1.538,1.538,0,0,1-1-.353,1.52,1.52,0,0,1-.169-2.15,1.567,1.567,0,0,1,2.155-.184,1.52,1.52,0,0,1,.169,2.15A1.493,1.493,0,0,1,48.515,38.551Z" transform="translate(-26.054 -13.446)" fill="#004e64"/>
        </g>
      </g>
    </g>
  </g>
</svg>
