<svg xmlns="http://www.w3.org/2000/svg" width="85" height="84.994" viewBox="0 0 85 84.994">
  <g id="Grupo_92275" data-name="Grupo 92275" transform="translate(-41.01 -70.528)">
    <g id="Grupo_92263" data-name="Grupo 92263" transform="translate(41.01 84.692)">
      <rect id="Rect치ngulo_35209" data-name="Rect치ngulo 35209" width="80.143" height="21.857" transform="translate(2.428 1.218)" fill="#fff"/>
      <path id="Trazado_140795" data-name="Trazado 140795" d="M124.24,97.851H42.785a1.775,1.775,0,0,1-1.775-1.77V74.832a1.776,1.776,0,0,1,1.775-1.775H124.24a1.775,1.775,0,0,1,1.77,1.775V96.081A1.774,1.774,0,0,1,124.24,97.851ZM44.555,94.306h77.909V76.6H44.555Z" transform="translate(-41.01 -73.057)" fill="#009ffd"/>
    </g>
    <g id="Grupo_92264" data-name="Grupo 92264" transform="translate(41.01 105.94)">
      <rect id="Rect치ngulo_35210" data-name="Rect치ngulo 35210" width="80.143" height="32.381" transform="translate(2.428 1.826)" fill="#a9dfff"/>
      <path id="Trazado_140796" data-name="Trazado 140796" d="M124.24,112.269H42.785a1.771,1.771,0,0,1-1.775-1.77V78.626a1.776,1.776,0,0,1,1.775-1.775H124.24a1.775,1.775,0,0,1,1.77,1.775V110.5A1.77,1.77,0,0,1,124.24,112.269Zm-79.685-3.54h77.909V80.4H44.555Z" transform="translate(-41.01 -76.851)" fill="#009ffd"/>
    </g>
    <g id="Grupo_92265" data-name="Grupo 92265" transform="translate(74.658 70.528)">
      <path id="Trazado_140797" data-name="Trazado 140797" d="M95.146,70.844H54.419a7.082,7.082,0,0,0-7.085,7.085v58.436H61.5V85.008H95.146Z" transform="translate(-45.564 -69.074)" fill="#00aedf"/>
      <path id="Trazado_140798" data-name="Trazado 140798" d="M62.952,139.589H48.788a1.77,1.77,0,0,1-1.77-1.77V79.382a8.863,8.863,0,0,1,8.854-8.854H96.6a1.77,1.77,0,1,1,0,3.54H55.872a5.323,5.323,0,0,0-5.315,5.315v56.666H61.182V86.467a1.775,1.775,0,0,1,1.77-1.775H96.6a1.773,1.773,0,0,1,0,3.545H64.727v49.582A1.775,1.775,0,0,1,62.952,139.589Z" transform="translate(-47.018 -70.528)" fill="#004e64"/>
    </g>
    <g id="Grupo_92268" data-name="Grupo 92268" transform="translate(41.01 132.52)">
      <g id="Grupo_92266" data-name="Grupo 92266">
        <path id="Trazado_140799" data-name="Trazado 140799" d="M55.564,97.884l.33.218a8.846,8.846,0,0,0,9.818,0l.806-.538a8.846,8.846,0,0,1,9.818,0l.807.538a8.856,8.856,0,0,0,9.823,0l.8-.538a8.846,8.846,0,0,1,9.818,0l.806.538a8.856,8.856,0,0,0,9.823,0l.325-.218a8.849,8.849,0,0,1,10.439.454l3.8,1.507V87.209l-3.8-3.041a8.849,8.849,0,0,0-10.439-.454l-.325.218a8.856,8.856,0,0,1-9.823,0l-.806-.532a8.846,8.846,0,0,0-9.818,0l-.8.532a8.856,8.856,0,0,1-9.823,0l-.807-.532a8.846,8.846,0,0,0-9.818,0l-.806.532a8.847,8.847,0,0,1-9.818,0l-.33-.218a8.849,8.849,0,0,0-10.439.454l-3.8,3.041V99.844l3.8-1.507A8.849,8.849,0,0,1,55.564,97.884Z" transform="translate(-39.552 -80.141)" fill="#fff"/>
        <path id="Trazado_140800" data-name="Trazado 140800" d="M124.24,103.075a1.972,1.972,0,0,1-.655-.123l-4.234-1.77a7.117,7.117,0,0,0-8.378-.37l-.319.213a10.794,10.794,0,0,1-11.789,0l-.8-.532a7.2,7.2,0,0,0-7.863,0l-.8.532a10.794,10.794,0,0,1-11.789,0l-.8-.532a7.193,7.193,0,0,0-7.858,0l-.8.532a10.794,10.794,0,0,1-11.789,0l-.319-.213a7.217,7.217,0,0,0-8.362.353l-.442.263-3.808,1.523a1.778,1.778,0,0,1-1.647-.19,1.724,1.724,0,0,1-.778-1.456V88.665a1.751,1.751,0,0,1,.678-1.383l3.786-3.047a10.846,10.846,0,0,1,12.54-.526l.319.207a8.25,8.25,0,0,0,.8.465,1.707,1.707,0,0,1,.885,1.008,1.741,1.741,0,0,1-.09,1.361,1.783,1.783,0,0,1-2.352.8,9.473,9.473,0,0,1-1.2-.694l-.319-.213A7.261,7.261,0,0,0,47.686,87l-3.131,2.515v9.174l1.148-.459a10.68,10.68,0,0,1,6.4-2.145h.034a10.693,10.693,0,0,1,5.881,1.775l.319.23a7.094,7.094,0,0,0,7.858,0l.8-.532a10.51,10.51,0,0,1,5.875-1.787h.039a10.51,10.51,0,0,1,5.875,1.787l.8.532a7.1,7.1,0,0,0,7.863,0l.8-.532a10.555,10.555,0,0,1,5.881-1.787h.034a10.51,10.51,0,0,1,5.875,1.787l.8.532a7.2,7.2,0,0,0,7.863,0l.314-.213a10.831,10.831,0,0,1,12.31.353l1.148.459V89.511L119.334,87a7.2,7.2,0,0,0-4.43-1.54,7.039,7.039,0,0,0-3.932,1.187l-.319.213a10.773,10.773,0,0,1-11.789,0l-.8-.532a7.131,7.131,0,0,0-7.863,0l-.8.532a10.773,10.773,0,0,1-11.789,0l-.8-.532a7.062,7.062,0,0,0-4.94-1.115,1.76,1.76,0,0,1-2-1.5,1.649,1.649,0,0,1,.336-1.311,1.785,1.785,0,0,1,1.154-.694,10.646,10.646,0,0,1,7.415,1.68l.8.532a7.224,7.224,0,0,0,7.863,0l.8-.532a10.762,10.762,0,0,1,11.789,0l.8.532a7.181,7.181,0,0,0,7.863,0l.314-.207a10.851,10.851,0,0,1,12.54.526l3.808,3.047a1.8,1.8,0,0,1,.655,1.383v12.64a1.724,1.724,0,0,1-.778,1.456A1.693,1.693,0,0,1,124.24,103.075Zm-59-14.942A1.771,1.771,0,0,1,63.625,85.6a1.776,1.776,0,0,1,3.276.174,1.768,1.768,0,0,1-1.081,2.251A1.806,1.806,0,0,1,65.238,88.133Z" transform="translate(-41.01 -81.597)" fill="#004e64"/>
      </g>
      <g id="Grupo_92267" data-name="Grupo 92267" transform="translate(0 8.847)">
        <path id="Trazado_140801" data-name="Trazado 140801" d="M118.979,85.749l3.8,3.282V94.1H41.327V89.031l3.8-3.282A8.849,8.849,0,0,1,55.564,85.3l.33.218a8.846,8.846,0,0,0,9.818,0l.806-.532a8.846,8.846,0,0,1,9.818,0l.807.532a8.856,8.856,0,0,0,9.823,0l.8-.532a8.846,8.846,0,0,1,9.818,0l.806.532a8.856,8.856,0,0,0,9.823,0l.325-.218A8.849,8.849,0,0,1,118.979,85.749Z" transform="translate(-39.552 -81.714)" fill="#00aedf"/>
        <path id="Trazado_140802" data-name="Trazado 140802" d="M124.24,97.331H42.785a1.771,1.771,0,0,1-1.775-1.77V90.493a1.76,1.76,0,0,1,.616-1.339l3.8-3.282a10.6,10.6,0,0,1,12.584-.588l.325.218a7.066,7.066,0,0,0,7.858,0l.8-.532a10.593,10.593,0,0,1,11.789-.006l.806.538a7.057,7.057,0,0,0,7.852,0l.8-.532a10.593,10.593,0,0,1,11.789-.006l.8.538a7.066,7.066,0,0,0,7.858,0l.33-.218a10.6,10.6,0,0,1,12.528.543l.05.045,3.8,3.282a1.76,1.76,0,0,1,.616,1.339v5.068A1.77,1.77,0,0,1,124.24,97.331Zm-79.685-3.54h77.909V91.305l-3.159-2.727a7.056,7.056,0,0,0-8.328-.347l-.325.218a10.593,10.593,0,0,1-11.789,0l-.8-.538a7.066,7.066,0,0,0-7.858.006l-.8.532a10.593,10.593,0,0,1-11.789,0l-.8-.538a7.066,7.066,0,0,0-7.858.006l-.8.532a10.583,10.583,0,0,1-11.789,0l-.325-.218a7.066,7.066,0,0,0-8.356.364L44.555,91.3Z" transform="translate(-41.01 -83.177)" fill="#004e64"/>
      </g>
    </g>
    <g id="Grupo_92269" data-name="Grupo 92269" transform="translate(48.095 113.025)">
      <path id="Trazado_140803" data-name="Trazado 140803" d="M56.444,81.656h-12.4a1.77,1.77,0,0,1,0-3.54h12.4a1.77,1.77,0,0,1,0,3.54Z" transform="translate(-42.275 -78.116)" fill="#009ffd"/>
    </g>
    <g id="Grupo_92270" data-name="Grupo 92270" transform="translate(102.991 113.025)">
      <path id="Trazado_140804" data-name="Trazado 140804" d="M73.326,81.656H53.847a1.77,1.77,0,1,1,0-3.54H73.326a1.77,1.77,0,0,1,0,3.54Z" transform="translate(-52.077 -78.116)" fill="#009ffd"/>
    </g>
    <g id="Grupo_92271" data-name="Grupo 92271" transform="translate(113.616 125.419)">
      <path id="Trazado_140805" data-name="Trazado 140805" d="M64.6,83.874H55.744a1.773,1.773,0,0,1,0-3.545H64.6a1.773,1.773,0,0,1,0,3.545Z" transform="translate(-53.974 -80.329)" fill="#009ffd"/>
    </g>
    <g id="Grupo_92272" data-name="Grupo 92272" transform="translate(97.676 120.11)">
      <path id="Trazado_140806" data-name="Trazado 140806" d="M61.752,82.921H52.9a1.77,1.77,0,1,1,0-3.54h8.855a1.77,1.77,0,0,1,0,3.54Z" transform="translate(-51.128 -79.381)" fill="#009ffd"/>
    </g>
    <g id="Grupo_92273" data-name="Grupo 92273" transform="translate(55.179 120.11)">
      <path id="Trazado_140807" data-name="Trazado 140807" d="M57.7,82.921H45.31a1.77,1.77,0,0,1,0-3.54H57.7a1.77,1.77,0,0,1,0,3.54Z" transform="translate(-43.54 -79.381)" fill="#009ffd"/>
    </g>
    <g id="Grupo_92274" data-name="Grupo 92274" transform="translate(60.489 127.195)">
      <path id="Trazado_140808" data-name="Trazado 140808" d="M51.573,84.186H46.263a1.77,1.77,0,1,1,0-3.54h5.309a1.77,1.77,0,0,1,0,3.54Z" transform="translate(-44.488 -80.646)" fill="#009ffd"/>
    </g>
  </g>
</svg>
