<svg xmlns="http://www.w3.org/2000/svg" width="82.997" height="82.997" viewBox="0 0 82.997 82.997">
  <g id="Grupo_92300" data-name="Grupo 92300" transform="translate(-146.41 -9.81)">
    <g id="Grupo_92288" data-name="Grupo 92288" transform="translate(146.41 9.81)">
      <circle id="Elipse_4506" data-name="Elipse 4506" cx="40.042" cy="40.042" r="40.042" transform="translate(1.456 1.455)" fill="#fff"/>
      <path id="Trazado_140825" data-name="Trazado 140825" d="M187.911,92.807a41.5,41.5,0,1,1,41.5-41.5A41.548,41.548,0,0,1,187.911,92.807Zm0-79.536a38.04,38.04,0,1,0,38.034,38.04A38.08,38.08,0,0,0,187.911,13.272Z" transform="translate(-146.41 -9.81)" fill="#004e64"/>
    </g>
    <g id="Grupo_92289" data-name="Grupo 92289" transform="translate(153.328 16.728)">
      <path id="Trazado_140826" data-name="Trazado 140826" d="M180.846,77.1a32.853,32.853,0,1,1,32.85-32.85A32.852,32.852,0,0,1,180.846,77.1Z" transform="translate(-146.263 -9.663)" fill="#a9dfff"/>
      <path id="Trazado_140827" data-name="Trazado 140827" d="M182.275,80.237h-.016a34.558,34.558,0,1,1,29.514-16.548,1.776,1.776,0,0,1-2.39.574,1.721,1.721,0,0,1-.569-2.368,31.1,31.1,0,1,0-8.958,9.439,1.774,1.774,0,0,1,2.406.432,1.723,1.723,0,0,1-.448,2.4A34.206,34.206,0,0,1,182.275,80.237ZM206.08,70a1.673,1.673,0,0,1-1.176-.481,1.727,1.727,0,0,1-.066-2.439,1.758,1.758,0,0,1,2.439-.071,1.655,1.655,0,0,1,.536,1.214,1.746,1.746,0,0,1-.47,1.241A1.706,1.706,0,0,1,206.08,70Z" transform="translate(-147.675 -11.075)" fill="#009ffd"/>
    </g>
    <g id="Grupo_92290" data-name="Grupo 92290" transform="translate(180.993 9.81)">
      <rect id="Rectángulo_35211" data-name="Rectángulo 35211" width="80.085" height="10.193" transform="translate(12.011 1.455) rotate(90)" fill="#00aedf"/>
      <path id="Trazado_140828" data-name="Trazado 140828" d="M164.836,92.807H154.462a1.732,1.732,0,0,1-1.728-1.728V11.544a1.733,1.733,0,0,1,1.728-1.734h10.374a1.729,1.729,0,0,1,1.728,1.734V91.079A1.728,1.728,0,0,1,164.836,92.807Zm-8.646-3.456h6.918V13.272H156.19Z" transform="translate(-152.734 -9.81)" fill="#004e64"/>
    </g>
    <g id="Grupo_92291" data-name="Grupo 92291" transform="translate(177.537 40.937)">
      <path id="Trazado_140829" data-name="Trazado 140829" d="M152.418,24.464a8.643,8.643,0,1,1,8.646,8.646A8.647,8.647,0,0,1,152.418,24.464Z" transform="translate(-150.69 -14.09)" fill="#fff"/>
      <path id="Trazado_140830" data-name="Trazado 140830" d="M162.476,36.25A10.374,10.374,0,1,1,172.85,25.876,10.382,10.382,0,0,1,162.476,36.25Zm0-17.292a6.915,6.915,0,1,0,6.912,6.918A6.922,6.922,0,0,0,162.476,18.958Z" transform="translate(-152.102 -15.502)" fill="#004e64"/>
    </g>
    <g id="Grupo_92292" data-name="Grupo 92292" transform="translate(187.911 46.122)">
      <path id="Trazado_140831" data-name="Trazado 140831" d="M192.355,23.684H157.771a3.457,3.457,0,0,1-3.456-3.456h0a3.458,3.458,0,0,1,3.456-3.462h34.583Z" transform="translate(-152.587 -15.038)" fill="#00aedf"/>
      <path id="Trazado_140832" data-name="Trazado 140832" d="M193.767,26.824H159.183a5.187,5.187,0,0,1,0-10.374h34.583a1.732,1.732,0,0,1,1.728,1.728V25.1A1.728,1.728,0,0,1,193.767,26.824Zm-34.583-6.912a1.728,1.728,0,1,0,0,3.456h32.85V19.912Z" transform="translate(-153.999 -16.45)" fill="#004e64"/>
    </g>
    <g id="Grupo_92293" data-name="Grupo 92293" transform="translate(184.45 49.583)">
      <path id="Trazado_140833" data-name="Trazado 140833" d="M156.828,20.539h-1.733a1.728,1.728,0,1,1,0-3.456h1.733a1.728,1.728,0,1,1,0,3.456Z" transform="translate(-153.366 -17.083)" fill="#004e64"/>
    </g>
    <g id="Grupo_92294" data-name="Grupo 92294" transform="translate(180.993 30.563)">
      <path id="Trazado_140834" data-name="Trazado 140834" d="M164.836,17.061H154.462a1.728,1.728,0,1,1,0-3.456h10.374a1.728,1.728,0,0,1,0,3.456Z" transform="translate(-152.734 -13.605)" fill="#004e64"/>
    </g>
    <g id="Grupo_92295" data-name="Grupo 92295" transform="translate(180.993 23.646)">
      <path id="Trazado_140835" data-name="Trazado 140835" d="M164.836,15.8H154.462a1.728,1.728,0,1,1,0-3.456h10.374a1.728,1.728,0,0,1,0,3.456Z" transform="translate(-152.734 -12.34)" fill="#004e64"/>
    </g>
    <g id="Grupo_92296" data-name="Grupo 92296" transform="translate(180.993 16.728)">
      <path id="Trazado_140836" data-name="Trazado 140836" d="M164.836,14.537H154.462a1.731,1.731,0,0,1,0-3.462h10.374a1.731,1.731,0,0,1,0,3.462Z" transform="translate(-152.734 -11.075)" fill="#004e64"/>
    </g>
    <g id="Grupo_92297" data-name="Grupo 92297" transform="translate(180.993 82.433)">
      <path id="Trazado_140837" data-name="Trazado 140837" d="M164.836,26.546H154.462a1.728,1.728,0,1,1,0-3.456h10.374a1.728,1.728,0,0,1,0,3.456Z" transform="translate(-152.734 -23.09)" fill="#004e64"/>
    </g>
    <g id="Grupo_92298" data-name="Grupo 92298" transform="translate(180.993 75.515)">
      <path id="Trazado_140838" data-name="Trazado 140838" d="M164.836,25.287H154.462a1.731,1.731,0,0,1,0-3.462h10.374a1.731,1.731,0,0,1,0,3.462Z" transform="translate(-152.734 -21.825)" fill="#004e64"/>
    </g>
    <g id="Grupo_92299" data-name="Grupo 92299" transform="translate(180.993 68.598)">
      <path id="Trazado_140839" data-name="Trazado 140839" d="M164.836,24.022H154.462a1.731,1.731,0,0,1,0-3.462h10.374a1.731,1.731,0,0,1,0,3.462Z" transform="translate(-152.734 -20.56)" fill="#004e64"/>
    </g>
  </g>
</svg>
