<svg xmlns="http://www.w3.org/2000/svg" width="84.994" height="84.995" viewBox="0 0 84.994 84.995">
  <g id="Grupo_92262" data-name="Grupo 92262" transform="translate(-19.905 -70.528)">
    <g id="Grupo_92243" data-name="Grupo 92243" transform="translate(19.905 91.777)">
      <g id="Grupo_92242" data-name="Grupo 92242">
        <g id="Grupo_92241" data-name="Grupo 92241">
          <path id="Trazado_140776" data-name="Trazado 140776" d="M101.676,76.916a10.5,10.5,0,0,0-11.515-.459l-.364.224a10.53,10.53,0,0,1-10.832,0l-.885-.543a10.53,10.53,0,0,0-10.832,0l-.885.543a10.53,10.53,0,0,1-10.832,0l-.885-.543a10.53,10.53,0,0,0-10.832,0l-.885.543a10.54,10.54,0,0,1-10.837,0l-.358-.224a10.5,10.5,0,0,0-11.515.459v57.927h81.455Z" transform="translate(-18.451 -72.867)" fill="#fff"/>
          <path id="Trazado_140777" data-name="Trazado 140777" d="M103.13,138.068H21.675a1.766,1.766,0,0,1-1.77-1.77V78.371a1.767,1.767,0,0,1,.722-1.428,12.239,12.239,0,0,1,13.481-.538l.364.213a8.707,8.707,0,0,0,8.989.006l.885-.538a12.264,12.264,0,0,1,12.674,0l.885.538a8.72,8.72,0,0,0,8.989,0l.885-.538a12.274,12.274,0,0,1,12.68,0l.885.538a8.71,8.71,0,0,0,8.983,0l.364-.224a12.26,12.26,0,0,1,13.486.543,1.767,1.767,0,0,1,.722,1.428V136.3A1.77,1.77,0,0,1,103.13,138.068Zm-79.685-3.54H101.36v-55.2a8.722,8.722,0,0,0-8.827.1l-.358.224a12.3,12.3,0,0,1-12.68-.006L78.61,79.1a8.71,8.71,0,0,0-8.983,0l-.89.538a12.264,12.264,0,0,1-12.674,0l-.885-.538a8.72,8.72,0,0,0-8.989,0l-.885.538a12.264,12.264,0,0,1-12.674,0l-.358-.213a8.7,8.7,0,0,0-8.827-.106Z" transform="translate(-19.905 -74.322)" fill="#009ffd"/>
        </g>
      </g>
    </g>
    <g id="Grupo_92246" data-name="Grupo 92246" transform="translate(19.905 105.968)">
      <g id="Grupo_92245" data-name="Grupo 92245">
        <g id="Grupo_92244" data-name="Grupo 92244">
          <path id="Trazado_140778" data-name="Trazado 140778" d="M101.676,79.444v43.763H20.221V79.444a10.49,10.49,0,0,1,11.515-.454l.358.218a10.54,10.54,0,0,0,10.837,0l.885-.538a10.5,10.5,0,0,1,10.832,0l.885.538a10.53,10.53,0,0,0,10.832,0l.885-.538a10.5,10.5,0,0,1,10.832,0l.885.538a10.53,10.53,0,0,0,10.832,0l.364-.218A10.491,10.491,0,0,1,101.676,79.444Z" transform="translate(-18.451 -75.423)" fill="#a9dfff"/>
          <path id="Trazado_140779" data-name="Trazado 140779" d="M103.13,126.41H21.675a1.741,1.741,0,0,1-1.77-1.77V80.888a1.749,1.749,0,0,1,.722-1.439A12.551,12.551,0,0,1,34.1,78.9l.375.23a8.893,8.893,0,0,0,8.978,0l.885-.543a12.478,12.478,0,0,1,12.68,0l.885.543a8.559,8.559,0,0,0,4.5,1.243h.3l.05-.017a1.77,1.77,0,0,1,.05,3.54,3.239,3.239,0,0,1-.4.017,12.338,12.338,0,0,1-6.34-1.753l-.885-.549a8.924,8.924,0,0,0-8.995,0l-.89.549a12.5,12.5,0,0,1-12.657,0l-.375-.23a8.888,8.888,0,0,0-8.815-.106V122.87H101.36V81.824a8.9,8.9,0,0,0-8.821.106l-.37.23a12.544,12.544,0,0,1-12.68,0l-.885-.549A8.62,8.62,0,0,0,75.86,80.53a1.759,1.759,0,1,1,.689-3.45,11.726,11.726,0,0,1,3.915,1.507l.885.543a8.893,8.893,0,0,0,8.978,0l.37-.23a12.549,12.549,0,0,1,13.475.549,1.777,1.777,0,0,1,.728,1.439V124.64a1.765,1.765,0,0,1-.515,1.26A1.747,1.747,0,0,1,103.13,126.41ZM69.325,81.521a1.753,1.753,0,0,1-1.574-.958,1.683,1.683,0,0,1-.106-1.344,1.7,1.7,0,0,1,.862-1.042,1.833,1.833,0,0,1,2.391.762,1.787,1.787,0,0,1-.762,2.391A1.921,1.921,0,0,1,69.325,81.521Z" transform="translate(-19.905 -76.856)" fill="#009ffd"/>
        </g>
      </g>
    </g>
    <g id="Grupo_92247" data-name="Grupo 92247" transform="translate(19.905 74.068)">
      <path id="Rectángulo_35208" data-name="Rectángulo 35208" d="M0,0H5.861A1.222,1.222,0,0,1,7.083,1.222V80.233a1.222,1.222,0,0,1-1.222,1.222H0a0,0,0,0,1,0,0V0A0,0,0,0,1,0,0Z" transform="translate(1.769 8.856) rotate(-90)" fill="#00aedf"/>
      <path id="Trazado_140780" data-name="Trazado 140780" d="M103.13,81.784H21.675a1.741,1.741,0,0,1-1.77-1.77v-3.54a5.325,5.325,0,0,1,5.309-5.315h6.569a1.773,1.773,0,0,1,0,3.545H25.214a1.774,1.774,0,0,0-1.77,1.77v1.77H101.36v-1.77a1.778,1.778,0,0,0-1.775-1.77H45.953a1.773,1.773,0,1,1,0-3.545H99.584a5.33,5.33,0,0,1,5.315,5.315v3.54a1.75,1.75,0,0,1-1.77,1.77ZM38.869,74.705a1.773,1.773,0,1,1,1.77-1.77A1.777,1.777,0,0,1,38.869,74.705Z" transform="translate(-19.905 -71.16)" fill="#004e64"/>
    </g>
    <g id="Grupo_92248" data-name="Grupo 92248" transform="translate(19.905 81.152)">
      <path id="Trazado_140781" data-name="Trazado 140781" d="M103.13,146.8H21.675a1.766,1.766,0,0,1-1.77-1.77V74.195a1.766,1.766,0,0,1,1.77-1.77H103.13a1.77,1.77,0,0,1,1.77,1.77v70.831A1.77,1.77,0,0,1,103.13,146.8Zm-79.685-3.54H101.36V75.965H23.445Z" transform="translate(-19.905 -72.425)" fill="#004e64"/>
    </g>
    <g id="Grupo_92249" data-name="Grupo 92249" transform="translate(87.19 70.528)">
      <path id="Trazado_140782" data-name="Trazado 140782" d="M33.689,155.522a1.774,1.774,0,0,1-1.77-1.77V72.3a1.773,1.773,0,0,1,3.545,0v81.455A1.778,1.778,0,0,1,33.689,155.522Z" transform="translate(-31.919 -70.528)" fill="#004e64"/>
    </g>
    <g id="Grupo_92250" data-name="Grupo 92250" transform="translate(80.111 70.528)">
      <path id="Trazado_140783" data-name="Trazado 140783" d="M32.425,155.522a1.774,1.774,0,0,1-1.77-1.77V72.3a1.77,1.77,0,0,1,3.54,0v81.455A1.774,1.774,0,0,1,32.425,155.522Z" transform="translate(-30.655 -70.528)" fill="#004e64"/>
    </g>
    <g id="Grupo_92251" data-name="Grupo 92251" transform="translate(80.111 144.898)">
      <path id="Trazado_140784" data-name="Trazado 140784" d="M39.5,87.352H32.425a1.773,1.773,0,0,1,0-3.545H39.5a1.773,1.773,0,1,1,0,3.545Z" transform="translate(-30.655 -83.807)" fill="#004e64"/>
    </g>
    <g id="Grupo_92252" data-name="Grupo 92252" transform="translate(80.111 137.819)">
      <path id="Trazado_140785" data-name="Trazado 140785" d="M39.5,86.083H32.425a1.77,1.77,0,0,1,0-3.54H39.5a1.77,1.77,0,1,1,0,3.54Z" transform="translate(-30.655 -82.543)" fill="#004e64"/>
    </g>
    <g id="Grupo_92253" data-name="Grupo 92253" transform="translate(80.111 130.734)">
      <path id="Trazado_140786" data-name="Trazado 140786" d="M39.5,84.818H32.425a1.77,1.77,0,0,1,0-3.54H39.5a1.77,1.77,0,1,1,0,3.54Z" transform="translate(-30.655 -81.278)" fill="#004e64"/>
    </g>
    <g id="Grupo_92254" data-name="Grupo 92254" transform="translate(80.111 123.65)">
      <path id="Trazado_140787" data-name="Trazado 140787" d="M39.5,83.558H32.425a1.773,1.773,0,0,1,0-3.545H39.5a1.773,1.773,0,1,1,0,3.545Z" transform="translate(-30.655 -80.013)" fill="#004e64"/>
    </g>
    <g id="Grupo_92255" data-name="Grupo 92255" transform="translate(80.111 116.565)">
      <path id="Trazado_140788" data-name="Trazado 140788" d="M39.5,82.293H32.425a1.773,1.773,0,0,1,0-3.545H39.5a1.773,1.773,0,1,1,0,3.545Z" transform="translate(-30.655 -78.748)" fill="#004e64"/>
    </g>
    <g id="Grupo_92256" data-name="Grupo 92256" transform="translate(80.111 109.486)">
      <path id="Trazado_140789" data-name="Trazado 140789" d="M39.5,81.023H32.425a1.77,1.77,0,1,1,0-3.54H39.5a1.77,1.77,0,1,1,0,3.54Z" transform="translate(-30.655 -77.484)" fill="#004e64"/>
    </g>
    <g id="Grupo_92257" data-name="Grupo 92257" transform="translate(80.111 102.401)">
      <path id="Trazado_140790" data-name="Trazado 140790" d="M39.5,79.759H32.425a1.77,1.77,0,1,1,0-3.54H39.5a1.77,1.77,0,1,1,0,3.54Z" transform="translate(-30.655 -76.219)" fill="#004e64"/>
    </g>
    <g id="Grupo_92258" data-name="Grupo 92258" transform="translate(80.111 95.316)">
      <path id="Trazado_140791" data-name="Trazado 140791" d="M39.5,78.5H32.425a1.773,1.773,0,0,1,0-3.545H39.5a1.773,1.773,0,1,1,0,3.545Z" transform="translate(-30.655 -74.954)" fill="#004e64"/>
    </g>
    <g id="Grupo_92259" data-name="Grupo 92259" transform="translate(80.111 88.237)">
      <path id="Trazado_140792" data-name="Trazado 140792" d="M39.5,77.23H32.425a1.77,1.77,0,1,1,0-3.54H39.5a1.77,1.77,0,1,1,0,3.54Z" transform="translate(-30.655 -73.69)" fill="#004e64"/>
    </g>
    <g id="Grupo_92260" data-name="Grupo 92260" transform="translate(19.905 144.898)">
      <path id="Trazado_140793" data-name="Trazado 140793" d="M74.8,87.352H21.675a1.773,1.773,0,0,1,0-3.545H74.8a1.773,1.773,0,0,1,0,3.545Z" transform="translate(-19.905 -83.807)" fill="#004e64"/>
    </g>
    <g id="Grupo_92261" data-name="Grupo 92261" transform="translate(94.275 144.898)">
      <path id="Trazado_140794" data-name="Trazado 140794" d="M42.039,87.352H34.954a1.773,1.773,0,0,1,0-3.545h7.085a1.773,1.773,0,0,1,0,3.545Z" transform="translate(-33.184 -83.807)" fill="#004e64"/>
    </g>
  </g>
</svg>
