<svg xmlns="http://www.w3.org/2000/svg" width="84.995" height="84.994" viewBox="0 0 84.995 84.994">
  <g id="Grupo_92287" data-name="Grupo 92287" transform="translate(-104.328 -81.528)">
    <g id="Grupo_92276" data-name="Grupo 92276" transform="translate(113.182 127.565)">
      <path id="Trazado_140809" data-name="Trazado 140809" d="M109.249,109.813a10.529,10.529,0,0,0,10.832,0l.885-.543a10.531,10.531,0,0,1,10.047-.4V93.6a3.54,3.54,0,0,0-3.54-3.54H109.765a3.54,3.54,0,0,0-3.54,3.54v14.858a10.286,10.286,0,0,1,2.66,1.131Z" transform="translate(-104.455 -88.29)" fill="#fff"/>
      <path id="Trazado_140810" data-name="Trazado 140810" d="M116.119,114.542a12.222,12.222,0,0,1-6.34-1.759h0l-.358-.218a8.745,8.745,0,0,0-2.2-.935,1.768,1.768,0,0,1-1.311-1.708V95.063a5.318,5.318,0,0,1,5.309-5.315h17.709a5.323,5.323,0,0,1,5.315,5.315V110.33a1.776,1.776,0,0,1-2.559,1.585,8.723,8.723,0,0,0-8.345.325l-.885.543A12.188,12.188,0,0,1,116.119,114.542Zm-4.492-4.783a8.71,8.71,0,0,0,8.983,0l.885-.538a12.238,12.238,0,0,1,9.2-1.406V95.063a1.77,1.77,0,0,0-1.77-1.77H111.218a1.774,1.774,0,0,0-1.77,1.77v13.581a11.393,11.393,0,0,1,1.815.9Z" transform="translate(-105.909 -89.748)" fill="#004e64"/>
    </g>
    <g id="Grupo_92277" data-name="Grupo 92277" transform="translate(146.825 127.565)">
      <path id="Trazado_140811" data-name="Trazado 140811" d="M118.437,104.279l.358.218a10.514,10.514,0,0,0,10.837,0l.885-.538a10.464,10.464,0,0,1,6.508-1.428V93.6a3.541,3.541,0,0,0-3.545-3.54h-17.7a3.541,3.541,0,0,0-3.545,3.54v9.224A10.464,10.464,0,0,1,118.437,104.279Z" transform="translate(-110.462 -88.29)" fill="#fff"/>
      <path id="Trazado_140812" data-name="Trazado 140812" d="M125.671,109.232a12.146,12.146,0,0,1-6.34-1.764l-.358-.218a8.778,8.778,0,0,0-5.153-1.2,1.774,1.774,0,0,1-1.9-1.764V95.063a5.323,5.323,0,0,1,5.315-5.315h17.7a5.319,5.319,0,0,1,5.315,5.315v8.927a1.786,1.786,0,0,1-.582,1.316,1.819,1.819,0,0,1-1.367.448,8.647,8.647,0,0,0-5.41,1.176l-.885.538A12.169,12.169,0,0,1,125.671,109.232Zm-10.215-6.71a11.913,11.913,0,0,1,5.36,1.7h0l.358.218a8.707,8.707,0,0,0,8.989,0l.885-.538a12.161,12.161,0,0,1,5.662-1.725V95.063a1.775,1.775,0,0,0-1.775-1.77h-17.7a1.775,1.775,0,0,0-1.775,1.77Z" transform="translate(-111.916 -89.748)" fill="#004e64"/>
    </g>
    <g id="Grupo_92278" data-name="Grupo 92278" transform="translate(113.182 81.528)">
      <path id="Trazado_140813" data-name="Trazado 140813" d="M109.249,90.967a10.5,10.5,0,0,0,10.832,0l.885-.538a10.516,10.516,0,0,1,10.047-.4V85.389a3.541,3.541,0,0,0-3.54-3.545H109.765a3.541,3.541,0,0,0-3.54,3.545v4.234a10.079,10.079,0,0,1,2.66,1.126Z" transform="translate(-104.455 -80.074)" fill="#fff"/>
      <path id="Trazado_140814" data-name="Trazado 140814" d="M116.119,95.7a12.175,12.175,0,0,1-6.34-1.764h0l-.358-.218a8.536,8.536,0,0,0-2.2-.93,1.768,1.768,0,0,1-1.311-1.708V86.843a5.315,5.315,0,0,1,5.309-5.315h17.709a5.319,5.319,0,0,1,5.315,5.315V91.48a1.77,1.77,0,0,1-2.559,1.585,8.723,8.723,0,0,0-8.345.33l-.885.538A12.141,12.141,0,0,1,116.119,95.7Zm-4.492-4.788a8.71,8.71,0,0,0,8.983,0l.885-.538a12.238,12.238,0,0,1,9.2-1.406V86.843a1.771,1.771,0,0,0-1.77-1.775H111.218a1.775,1.775,0,0,0-1.77,1.775v2.951a11.393,11.393,0,0,1,1.815.9Z" transform="translate(-105.909 -81.528)" fill="#004e64"/>
    </g>
    <g id="Grupo_92279" data-name="Grupo 92279" transform="translate(146.825 81.528)">
      <path id="Trazado_140815" data-name="Trazado 140815" d="M118.437,92.519l.358.218a10.514,10.514,0,0,0,10.837,0l.885-.538a10.464,10.464,0,0,1,6.508-1.428V85.389a3.542,3.542,0,0,0-3.545-3.545h-17.7a3.542,3.542,0,0,0-3.545,3.545v5.679A10.423,10.423,0,0,1,118.437,92.519Z" transform="translate(-110.462 -80.074)" fill="#fff"/>
      <path id="Trazado_140816" data-name="Trazado 140816" d="M125.671,97.467a12.146,12.146,0,0,1-6.34-1.764l-.358-.218a8.777,8.777,0,0,0-5.153-1.2,1.774,1.774,0,0,1-1.9-1.764V86.843a5.319,5.319,0,0,1,5.315-5.315h17.7a5.316,5.316,0,0,1,5.315,5.315v5.382a1.777,1.777,0,0,1-.582,1.316,1.819,1.819,0,0,1-1.367.448,8.648,8.648,0,0,0-5.41,1.176l-.885.538A12.17,12.17,0,0,1,125.671,97.467Zm-10.215-6.709a11.912,11.912,0,0,1,5.36,1.7h0l.358.224a8.733,8.733,0,0,0,8.989,0l.885-.543a12.162,12.162,0,0,1,5.662-1.725V86.843a1.776,1.776,0,0,0-1.775-1.775h-17.7a1.776,1.776,0,0,0-1.775,1.775Z" transform="translate(-111.916 -81.528)" fill="#004e64"/>
    </g>
    <g id="Grupo_92280" data-name="Grupo 92280" transform="translate(104.328 88.623)">
      <path id="Trazado_140817" data-name="Trazado 140817" d="M179.014,99.032h-7.079V84.941a10.464,10.464,0,0,0-6.508,1.428l-.885.538a10.514,10.514,0,0,1-10.837,0l-.358-.218a10.423,10.423,0,0,0-6.205-1.451V99.032h-8.855V84.2a10.516,10.516,0,0,0-10.047.4l-.885.538a10.5,10.5,0,0,1-10.832,0l-.364-.218a10.079,10.079,0,0,0-2.66-1.126V99.032h-8.855v7.085H113.5v5.315h24.788v-5.315h8.855v5.315h24.794v-5.315h7.079v38.958h-7.079V134.523a10.464,10.464,0,0,0-6.508,1.428l-.885.538a10.514,10.514,0,0,1-10.837,0l-.358-.218a10.464,10.464,0,0,0-6.205-1.451v10.255h-8.855v-4.217a10.53,10.53,0,0,0-10.047.4l-.885.543a10.529,10.529,0,0,1-10.832,0l-.364-.218a10.286,10.286,0,0,0-2.66-1.131v4.621h-8.855v7.085H113.5v5.309h24.788v-5.309h8.855v5.309h24.794v-5.309H186.1V99.032Z" transform="translate(-102.874 -81.339)" fill="#a9dfff"/>
      <path id="Trazado_140818" data-name="Trazado 140818" d="M173.389,160.695H148.6a1.766,1.766,0,0,1-1.77-1.77v-3.54h-5.309v3.54a1.771,1.771,0,0,1-1.775,1.77H114.952a1.766,1.766,0,0,1-1.77-1.77v-3.54H106.1a1.77,1.77,0,0,1-1.77-1.77v-7.085a1.766,1.766,0,0,1,1.77-1.77h7.085V141.91a1.768,1.768,0,0,1,2.229-1.708,12.024,12.024,0,0,1,3.125,1.327l.364.218a8.71,8.71,0,0,0,8.983,0l.885-.538a12.284,12.284,0,0,1,11.761-.482,1.783,1.783,0,0,1,.986,1.591v2.442h5.309v-8.485a1.764,1.764,0,0,1,1.641-1.764,12.092,12.092,0,0,1,7.258,1.7l.358.218a8.707,8.707,0,0,0,8.989,0l.885-.538a12.342,12.342,0,0,1,7.611-1.68,1.777,1.777,0,0,1,1.591,1.764v8.782h3.54V109.343h-3.54v3.545a1.774,1.774,0,0,1-1.77,1.77H148.6a1.77,1.77,0,0,1-1.77-1.77v-3.545h-5.309v3.545a1.775,1.775,0,0,1-1.775,1.77H114.952a1.77,1.77,0,0,1-1.77-1.77v-3.545H106.1a1.766,1.766,0,0,1-1.77-1.77v-7.085a1.77,1.77,0,0,1,1.77-1.77h7.085V85.249a1.768,1.768,0,0,1,2.229-1.708,11.824,11.824,0,0,1,3.125,1.322l.364.218a8.71,8.71,0,0,0,8.983,0l.885-.538a12.3,12.3,0,0,1,11.761-.482,1.79,1.79,0,0,1,.986,1.591V98.719h5.309V86.694a1.768,1.768,0,0,1,1.641-1.764,12.092,12.092,0,0,1,7.258,1.7l.358.224a8.733,8.733,0,0,0,8.989,0l.885-.543a12.342,12.342,0,0,1,7.611-1.68,1.777,1.777,0,0,1,1.591,1.764V98.719h12.394a1.77,1.77,0,0,1,1.77,1.77v53.127a1.77,1.77,0,0,1-1.77,1.77H175.159v3.54A1.77,1.77,0,0,1,173.389,160.695Zm-23.024-3.54h21.254v-3.54a1.766,1.766,0,0,1,1.77-1.77h12.394V102.264H173.389a1.771,1.771,0,0,1-1.77-1.775V88.133a8.605,8.605,0,0,0-3.82,1.2l-.885.538a12.276,12.276,0,0,1-12.674,0l-.364-.218a8.5,8.5,0,0,0-3.512-1.171v12a1.771,1.771,0,0,1-1.77,1.775h-8.855a1.775,1.775,0,0,1-1.77-1.775V86.823a8.691,8.691,0,0,0-7.359.745l-.885.538a12.276,12.276,0,0,1-12.674,0l-.33-.2v12.585a1.771,1.771,0,0,1-1.77,1.775h-7.085v3.54h7.085a1.766,1.766,0,0,1,1.77,1.77v3.54h21.249v-3.54a1.77,1.77,0,0,1,1.77-1.77H148.6a1.766,1.766,0,0,1,1.77,1.77v3.54h21.254v-3.54a1.766,1.766,0,0,1,1.77-1.77h7.079a1.771,1.771,0,0,1,1.775,1.77v38.958a1.771,1.771,0,0,1-1.775,1.77h-7.079a1.766,1.766,0,0,1-1.77-1.77v-8.815a8.605,8.605,0,0,0-3.82,1.2l-.885.538a12.276,12.276,0,0,1-12.674,0l-.364-.218a8.5,8.5,0,0,0-3.512-1.171v8.462a1.766,1.766,0,0,1-1.77,1.77h-8.855a1.77,1.77,0,0,1-1.77-1.77V143.49a8.711,8.711,0,0,0-7.359.739l-.885.543a12.289,12.289,0,0,1-12.674,0l-.33-.2v1.96a1.766,1.766,0,0,1-1.77,1.77h-7.085v3.545h7.085a1.766,1.766,0,0,1,1.77,1.77v3.54h21.249v-3.54a1.77,1.77,0,0,1,1.77-1.77H148.6a1.766,1.766,0,0,1,1.77,1.77Z" transform="translate(-104.328 -82.795)" fill="#009ffd"/>
    </g>
    <g id="Grupo_92281" data-name="Grupo 92281" transform="translate(120.262 99.237)">
      <path id="Trazado_140819" data-name="Trazado 140819" d="M114.258,86.46a1.777,1.777,0,0,1,1.77-1.77h0a1.774,1.774,0,0,1,1.77,1.77h0a1.774,1.774,0,0,1-1.77,1.77h0A1.777,1.777,0,0,1,114.258,86.46Zm-7.085,0a1.778,1.778,0,0,1,1.775-1.77h0a1.777,1.777,0,0,1,1.77,1.77h0a1.777,1.777,0,0,1-1.77,1.77h0A1.778,1.778,0,0,1,107.173,86.46Z" transform="translate(-107.173 -84.69)" fill="#009ffd"/>
    </g>
    <g id="Grupo_92282" data-name="Grupo 92282" transform="translate(123.807 104.546)">
      <path id="Trazado_140820" data-name="Trazado 140820" d="M114.885,87.408a1.782,1.782,0,0,1,1.775-1.77h0a1.781,1.781,0,0,1,1.77,1.77h0a1.782,1.782,0,0,1-1.77,1.775h0A1.783,1.783,0,0,1,114.885,87.408Zm-7.079,0a1.777,1.777,0,0,1,1.77-1.77h0a1.777,1.777,0,0,1,1.77,1.77h0a1.778,1.778,0,0,1-1.77,1.775h0A1.778,1.778,0,0,1,107.806,87.408Z" transform="translate(-107.806 -85.638)" fill="#009ffd"/>
    </g>
    <g id="Grupo_92283" data-name="Grupo 92283" transform="translate(120.262 109.861)">
      <path id="Trazado_140821" data-name="Trazado 140821" d="M114.258,88.357a1.777,1.777,0,0,1,1.77-1.77h0a1.774,1.774,0,0,1,1.77,1.77h0a1.774,1.774,0,0,1-1.77,1.77h0A1.777,1.777,0,0,1,114.258,88.357Zm-7.085,0a1.778,1.778,0,0,1,1.775-1.77h0a1.777,1.777,0,0,1,1.77,1.77h0a1.777,1.777,0,0,1-1.77,1.77h0A1.778,1.778,0,0,1,107.173,88.357Z" transform="translate(-107.173 -86.587)" fill="#009ffd"/>
    </g>
    <g id="Grupo_92284" data-name="Grupo 92284" transform="translate(157.45 101.007)">
      <path id="Trazado_140822" data-name="Trazado 140822" d="M120.9,86.776a1.774,1.774,0,0,1,1.77-1.77h0a1.774,1.774,0,0,1,1.77,1.77h0a1.774,1.774,0,0,1-1.77,1.77h0A1.774,1.774,0,0,1,120.9,86.776Zm-7.085,0a1.777,1.777,0,0,1,1.77-1.77h0a1.778,1.778,0,0,1,1.775,1.77h0a1.778,1.778,0,0,1-1.775,1.77h0A1.777,1.777,0,0,1,113.813,86.776Z" transform="translate(-113.813 -85.006)" fill="#009ffd"/>
    </g>
    <g id="Grupo_92285" data-name="Grupo 92285" transform="translate(153.91 108.092)">
      <path id="Trazado_140823" data-name="Trazado 140823" d="M120.266,88.041a1.774,1.774,0,0,1,1.77-1.77h0a1.774,1.774,0,0,1,1.77,1.77h0a1.774,1.774,0,0,1-1.77,1.77h0A1.774,1.774,0,0,1,120.266,88.041Zm-7.085,0a1.773,1.773,0,0,1,1.77-1.77h0a1.774,1.774,0,0,1,1.77,1.77h0a1.774,1.774,0,0,1-1.77,1.77h0A1.774,1.774,0,0,1,113.181,88.041Z" transform="translate(-113.181 -86.271)" fill="#009ffd"/>
    </g>
    <g id="Grupo_92286" data-name="Grupo 92286" transform="translate(155.68 154.128)">
      <path id="Trazado_140824" data-name="Trazado 140824" d="M120.582,96.261a1.774,1.774,0,0,1,1.77-1.77h0a1.774,1.774,0,0,1,1.77,1.77h0a1.778,1.778,0,0,1-1.77,1.775h0A1.778,1.778,0,0,1,120.582,96.261Zm-7.085,0a1.774,1.774,0,0,1,1.77-1.77h0a1.774,1.774,0,0,1,1.77,1.77h0a1.778,1.778,0,0,1-1.77,1.775h0A1.778,1.778,0,0,1,113.5,96.261Z" transform="translate(-113.497 -94.491)" fill="#009ffd"/>
    </g>
  </g>
</svg>
